<svg id="visual" viewBox="0 0 960 540" width="960" height="540" xmlns="http://www.w3.org/2000/svg" xmlns:xlink="http://www.w3.org/1999/xlink" version="1.1"><path d="M0 50L87 60L175 66L262 60L349 44L436 60L524 66L611 104L698 55L785 44L873 87L960 55L960 0L873 0L785 0L698 0L611 0L524 0L436 0L349 0L262 0L175 0L87 0L0 0Z" fill="#035482"></path><path d="M0 244L87 228L175 249L262 282L349 244L436 233L524 190L611 228L698 212L785 147L873 195L960 168L960 53L873 85L785 42L698 53L611 102L524 64L436 58L349 42L262 58L175 64L87 58L0 48Z" fill="#005a95"></path><path d="M0 384L87 330L175 390L262 406L349 428L436 368L524 417L611 411L698 363L785 368L873 401L960 347L960 166L873 193L785 145L698 210L611 226L524 188L436 231L349 242L262 280L175 247L87 226L0 242Z" fill="#0060a8"></path><path d="M0 455L87 417L175 465L262 476L349 460L436 411L524 465L611 455L698 401L785 455L873 487L960 379L960 345L873 399L785 366L698 361L611 409L524 415L436 366L349 426L262 404L175 388L87 328L0 382Z" fill="#0065ba"></path><path d="M0 541L87 541L175 541L262 541L349 541L436 541L524 541L611 541L698 541L785 541L873 541L960 541L960 377L873 485L785 453L698 399L611 453L524 463L436 409L349 458L262 474L175 463L87 415L0 453Z" fill="#0069cc"></path></svg>